<svg width="1261" height="850" xmlns="http://www.w3.org/2000/svg" xmlns:xlink="http://www.w3.org/1999/xlink" overflow="hidden"><defs><clipPath id="clip0"><rect x="797" y="354" width="1261" height="850"/></clipPath><clipPath id="clip1"><rect x="797" y="354" width="1258" height="847"/></clipPath><clipPath id="clip2"><rect x="797" y="354" width="1258" height="847"/></clipPath><clipPath id="clip3"><rect x="907" y="405" width="1101" height="589"/></clipPath><clipPath id="clip4"><rect x="907" y="405" width="1101" height="589"/></clipPath><clipPath id="clip5"><rect x="797" y="354" width="1258" height="847"/></clipPath><clipPath id="clip6"><rect x="797" y="354" width="1258" height="847"/></clipPath><clipPath id="clip7"><rect x="797" y="354" width="1258" height="847"/></clipPath><clipPath id="clip8"><rect x="797" y="354" width="1258" height="847"/></clipPath><clipPath id="clip9"><rect x="797" y="354" width="1258" height="847"/></clipPath><clipPath id="clip10"><rect x="797" y="354" width="1258" height="847"/></clipPath><clipPath id="clip11"><rect x="797" y="354" width="1258" height="847"/></clipPath><clipPath id="clip12"><rect x="797" y="354" width="1258" height="847"/></clipPath><clipPath id="clip13"><rect x="797" y="354" width="1258" height="847"/></clipPath><clipPath id="clip14"><rect x="797" y="354" width="1258" height="847"/></clipPath><clipPath id="clip15"><rect x="797" y="354" width="1258" height="847"/></clipPath><clipPath id="clip16"><rect x="797" y="354" width="1258" height="847"/></clipPath><clipPath id="clip17"><rect x="797" y="354" width="1258" height="847"/></clipPath><clipPath id="clip18"><rect x="797" y="354" width="1258" height="847"/></clipPath><clipPath id="clip19"><rect x="797" y="354" width="1258" height="847"/></clipPath><clipPath id="clip20"><rect x="797" y="354" width="1258" height="847"/></clipPath><clipPath id="clip21"><rect x="797" y="354" width="1258" height="847"/></clipPath><clipPath id="clip22"><rect x="797" y="354" width="1258" height="847"/></clipPath><clipPath id="clip23"><rect x="797" y="354" width="1258" height="847"/></clipPath></defs><g clip-path="url(#clip0)" transform="translate(-797 -354)"><rect x="798" y="355" width="1258" height="847" fill="#FFFFFF"/><g clip-path="url(#clip1)"><path d="M907.5 906.53 2005.5 906.53M907.5 823.527 2005.5 823.527M907.5 739.524 2005.5 739.524M907.5 656.522 2005.5 656.522M907.5 572.519 2005.5 572.519M907.5 488.516 2005.5 488.516M907.5 405.5 2005.5 405.5" stroke="#D9D9D9" stroke-width="3.4375" stroke-linejoin="round" stroke-miterlimit="10" fill="none"/></g><g clip-path="url(#clip2)"><path d="M907.5 990.5 2005.5 990.5" stroke="#D9D9D9" stroke-width="3.4375" stroke-linejoin="round" stroke-miterlimit="10" fill="none" fill-rule="evenodd"/></g><g clip-path="url(#clip3)"><path d="M986 689.023 1143.04 639 1299.04 656.022 1456.05 639 1613.05 740 1770.06 723.024 1927 723.024" stroke="#4472C4" stroke-width="10.3125" stroke-linecap="round" stroke-linejoin="round" stroke-miterlimit="10" fill="none"/></g><g clip-path="url(#clip4)"><path d="M986 472 1143.04 506.017 1299.04 589.019 1456.05 539.018 1613.05 639 1770.06 606.02 1927 472" stroke="#ED7D31" stroke-width="10.3125" stroke-linecap="round" stroke-linejoin="round" stroke-miterlimit="10" fill="none"/></g><g clip-path="url(#clip5)"><text fill="#595959" font-family="Calibri,Calibri_MSFontService,sans-serif" font-weight="400" font-size="41" transform="matrix(1 0 0 1 848.192 1002)">0</text></g><g clip-path="url(#clip6)"><text fill="#595959" font-family="Calibri,Calibri_MSFontService,sans-serif" font-weight="400" font-size="41" transform="matrix(1 0 0 1 848.192 919)">5</text></g><g clip-path="url(#clip7)"><text fill="#595959" font-family="Calibri,Calibri_MSFontService,sans-serif" font-weight="400" font-size="41" transform="matrix(1 0 0 1 827.292 835)">10</text></g><g clip-path="url(#clip8)"><text fill="#595959" font-family="Calibri,Calibri_MSFontService,sans-serif" font-weight="400" font-size="41" transform="matrix(1 0 0 1 827.292 751)">15</text></g><g clip-path="url(#clip9)"><text fill="#595959" font-family="Calibri,Calibri_MSFontService,sans-serif" font-weight="400" font-size="41" transform="matrix(1 0 0 1 827.292 668)">20</text></g><g clip-path="url(#clip10)"><text fill="#595959" font-family="Calibri,Calibri_MSFontService,sans-serif" font-weight="400" font-size="41" transform="matrix(1 0 0 1 827.292 584)">25</text></g><g clip-path="url(#clip11)"><text fill="#595959" font-family="Calibri,Calibri_MSFontService,sans-serif" font-weight="400" font-size="41" transform="matrix(1 0 0 1 827.292 500)">30</text></g><g clip-path="url(#clip12)"><text fill="#595959" font-family="Calibri,Calibri_MSFontService,sans-serif" font-weight="400" font-size="41" transform="matrix(1 0 0 1 827.292 417)">35</text></g><g clip-path="url(#clip13)"><text fill="#595959" font-family="Calibri,Calibri_MSFontService,sans-serif" font-weight="400" font-size="41" transform="matrix(1 0 0 1 964.876 1056)">23</text></g><g clip-path="url(#clip14)"><text fill="#595959" font-family="Calibri,Calibri_MSFontService,sans-serif" font-weight="400" font-size="41" transform="matrix(1 0 0 1 1121.71 1056)">24</text></g><g clip-path="url(#clip15)"><text fill="#595959" font-family="Calibri,Calibri_MSFontService,sans-serif" font-weight="400" font-size="41" transform="matrix(1 0 0 1 1278.55 1056)">25</text></g><g clip-path="url(#clip16)"><text fill="#595959" font-family="Calibri,Calibri_MSFontService,sans-serif" font-weight="400" font-size="41" transform="matrix(1 0 0 1 1435.38 1056)">26</text></g><g clip-path="url(#clip17)"><text fill="#595959" font-family="Calibri,Calibri_MSFontService,sans-serif" font-weight="400" font-size="41" transform="matrix(1 0 0 1 1592.22 1056)">27</text></g><g clip-path="url(#clip18)"><text fill="#595959" font-family="Calibri,Calibri_MSFontService,sans-serif" font-weight="400" font-size="41" transform="matrix(1 0 0 1 1749.05 1056)">28</text></g><g clip-path="url(#clip19)"><text fill="#595959" font-family="Calibri,Calibri_MSFontService,sans-serif" font-weight="400" font-size="41" transform="matrix(1 0 0 1 1905.89 1056)">29</text></g><g clip-path="url(#clip20)"><path d="M1236 1136 1324 1136" stroke="#4472C4" stroke-width="10.3125" stroke-linecap="round" stroke-linejoin="round" stroke-miterlimit="10" fill="none" fill-rule="evenodd"/></g><g clip-path="url(#clip21)"><text fill="#595959" font-family="Yu Gothic,Yu Gothic_MSFontService,sans-serif" font-weight="400" font-size="41" transform="matrix(1 0 0 1 1332.95 1148)">最低</text></g><g clip-path="url(#clip22)"><path d="M1454 1136 1542 1136" stroke="#ED7D31" stroke-width="10.3125" stroke-linecap="round" stroke-linejoin="round" stroke-miterlimit="10" fill="none" fill-rule="evenodd"/></g><g clip-path="url(#clip23)"><text fill="#595959" font-family="Yu Gothic,Yu Gothic_MSFontService,sans-serif" font-weight="400" font-size="41" transform="matrix(1 0 0 1 1551.11 1148)">最高</text></g><rect x="798.5" y="355.5" width="1258" height="847" stroke="#D9D9D9" stroke-width="3.4375" stroke-linejoin="round" stroke-miterlimit="10" fill="none"/></g></svg>